<svg xmlns="http://www.w3.org/2000/svg" xmlns:xlink="http://www.w3.org/1999/xlink" fill="none" version="1.1" width="669.9125366210938" height="107.9793701171875" viewBox="0 0 669.9125366210938 107.9793701171875"><g><path d="M0,106.39999L0,0L22.799999,0L22.799999,106.39999L0,106.39999ZM10.547374,64.177246L10.547374,44.469498L65.538124,44.469498L65.538124,64.177246L10.547374,64.177246ZM10.547374,20.536621L10.547374,0L71.905495,0L71.905495,20.536621L10.547374,20.536621ZM109.48274,107.97937Q100.67387,107.97937,94.334991,104.08675Q87.998489,100.19412,84.606995,92.96225Q81.217865,85.727997,81.217865,75.610497L81.217865,26.008621L102.78524,26.008621L102.78524,72.005249Q102.78524,77.579369,104.57599,81.578873Q106.36674,85.575989,109.74874,87.720612Q113.13074,89.86525,117.93536,89.86525Q121.5145,89.86525,124.48325,88.718124Q127.452,87.568619,129.60849,85.457245Q131.76736,83.345871,132.99049,80.438873Q134.21599,77.529495,134.21599,74.15937L134.21599,26.008621L155.78336,26.008621L155.78336,98.189606L135.22061,106.39999L134.5105,89.798737L138.42924,87.974747Q136.66461,93.658112,132.392,98.189621Q128.11937,102.71875,122.19138,105.35025Q116.26337,107.97937,109.48274,107.97937ZM171.48924,106.39999L171.668,34.266495L192.17073,26.008621L192.76212,42.424622L188.54648,44.248619Q190.12585,38.750496,194.50299,34.266495Q198.88248,29.782494,204.96249,27.060745Q211.04248,24.336624,217.60461,24.336624Q226.72461,24.336624,232.92336,27.998871Q239.1221,31.658745,242.24997,38.985619Q245.37787,46.31012,245.37787,57.168625L245.37787,106.39999L223.81049,106.39999L223.81049,58.82399Q223.81049,53.342499,222.28098,49.715866Q220.75386,46.089249,217.60461,44.362625Q214.45535,42.636002,209.89536,42.821243Q206.22124,42.821243,203.15985,43.970749Q200.09848,45.117874,197.84698,47.229248Q195.59785,49.340622,194.32724,52.081375Q193.05661,54.822121,193.05661,58.063995L193.05661,106.39999L182.35011,106.39999Q178.89449,106.39999,176.17986,106.39999Q173.46524,106.39999,171.48924,106.39999ZM294.91324,107.92Q283.3446,107.92,274.24835,102.448Q265.15448,96.975998,259.88437,87.523499Q254.61661,78.068619,254.61661,66.129494Q254.61661,54.187996,259.88437,44.735497Q265.15448,35.280624,274.24835,29.808624Q283.3446,24.336624,294.91324,24.336624Q305.672,24.336624,314.61862,28.286247Q323.56525,32.233498,328.59787,39.265869L316.80124,53.454117Q314.66611,50.606491,311.45511,48.250496Q308.24649,45.894501,304.52249,44.547867Q300.79849,43.201248,296.90585,43.201248Q290.67386,43.201248,285.85974,46.153366Q281.048,49.105499,278.29538,54.301994Q275.54276,59.498497,275.54276,66.070122Q275.54276,72.579994,278.35712,77.731369Q281.17386,82.882751,286.03311,85.939362Q290.89474,88.996002,296.9985,88.996002Q300.98611,88.996002,304.47736,87.865494Q307.9686,86.73262,311.08463,84.500122Q314.20062,82.265244,316.80124,79.082748L328.53848,93.327988Q323.37997,99.930496,314.24573,103.92525Q305.11386,107.92,294.91324,107.92ZM339.26401,106.39999L339.26401,0L385.42212,0Q396.13812,0,403.51251,3.0993729Q410.88925,6.1987457,414.69638,12.114868Q418.50589,18.028625,418.50589,26.338745Q418.50589,35.356621,413.896,41.495995Q409.28613,47.635376,400.8335,49.855995L400.65536,46.875366Q407.74002,48.454742,413.00064,52.27137Q418.26126,56.087997,421.19437,61.688248Q424.12988,67.286118,424.12988,74.49662Q424.12988,82.393494,421.50787,88.364243Q418.88589,94.332626,413.896,98.343994Q408.90613,102.35536,402.10413,104.37888Q395.30212,106.39999,386.94214,106.39999L339.26401,106.39999ZM361.11874,86.689865L386.03012,86.689865Q390.96063,86.689865,394.37589,85.191238Q397.79349,83.692627,399.646,80.71199Q401.4985,77.731369,401.4985,73.54187Q401.4985,69.658745,399.52249,66.934616Q397.54651,64.210495,393.93176,62.759369Q390.31937,61.30587,385.27014,61.30587L361.11874,61.30587L361.11874,86.689865ZM361.11874,43.13475L382.67664,43.13475Q386.82339,43.13475,389.86337,41.664619Q392.90338,40.194496,394.53976,37.565369Q396.1785,34.933868,396.1785,31.421249Q396.1785,25.882744,392.47589,22.797623Q388.77325,19.710121,381.444,19.710121L361.11874,19.710121L361.11874,43.13475ZM465.56653,107.86063Q455.57013,107.86063,447.52603,102.41949Q439.4819,96.975998,434.73663,87.523499Q429.99139,78.068619,429.99139,66.0345Q429.99139,53.850746,434.75327,44.443375Q439.51752,35.035995,447.77539,29.6875Q456.03326,24.336624,466.52127,24.336624Q472.45877,24.336624,477.38925,26.044243Q482.32214,27.749496,486.04852,30.810875Q489.77725,33.869873,492.31375,37.859871Q494.85263,41.849869,495.93326,46.419373L491.37326,45.616623L491.37326,26.008621L512.79816,26.008621L512.66797,96.399994L491.07877,106.39999L491.07877,87.046112L495.96652,86.630493Q494.8194,90.853241,492.06677,94.700745Q489.31415,98.545868,485.24814,101.4695Q481.18213,104.39075,476.20413,106.12686Q471.22614,107.86063,465.56653,107.86063ZM471.50403,89.283371Q477.58401,89.283371,482.13925,86.378738Q486.69452,83.474121,489.21915,78.234871Q491.74612,72.99324,491.74612,66.0345Q491.74612,59.170746,489.21915,53.94812Q486.69452,48.725494,482.13925,45.820869Q477.58401,42.913872,471.50403,42.913872Q465.51663,42.913872,461.03738,45.820869Q456.55814,48.725494,454.03116,53.94812Q451.50653,59.170746,451.50653,66.0345Q451.50653,72.99324,454.03116,78.234871Q456.55814,83.474121,461.03738,86.378738Q465.51663,89.283371,471.50403,89.283371ZM555.45795,107.92Q544.18616,107.92,535.44855,104.21738Q526.71332,100.51474,521.33392,93.969238L537.16797,86.378754Q544.66797,89.399994,545.24066,89.57074Q550.99054,91.807999,556.82593,91.807999Q559.08929,91.807999,560.97266,91.302124Q562.85608,90.793869,564.1908,89.751251Q565.52557,88.708618,566.22858,87.312119Q566.93396,85.913239,566.93396,84.165253Q566.93396,80.863998,564.22406,78.963997Q562.76343,78.078117,559.55481,76.933372Q556.34619,75.78862,551.23755,74.479996Q543.54254,72.494492,538.18457,69.843994Q532.82654,67.193497,529.61078,63.780624Q526.79883,60.714493,525.35004,56.971497Q523.90131,53.22612,523.90131,48.64949Q523.90131,43.158493,526.37134,38.712494Q528.84131,34.266495,533.16144,31.034119Q537.48157,27.79937,543.10791,26.067993Q548.73669,24.336624,554.90216,24.336624Q561.23395,24.336624,567.1358,25.828125Q573.04004,27.317245,578.13678,30.117371Q583.23358,32.917496,587.01459,36.750748L575.44592,49.585251Q572.6767,46.994125,569.25665,44.877991Q565.83667,42.761871,562.25043,41.517372Q558.66656,40.270493,555.66217,40.270493Q553.06158,40.270493,551.03809,40.731247Q549.01459,41.191994,547.65131,42.141998Q546.28809,43.091995,545.5827,44.474243Q544.87732,45.854126,544.87732,47.602119Q544.96991,49.28125,545.77509,50.763245Q546.58258,52.245247,548.16193,53.285492Q549.71753,54.263992,553.0307,55.513245Q556.34619,56.762497,561.98682,58.215996Q569.28992,60.191994,574.34869,62.638245Q579.40741,65.082123,582.41418,68.297867Q585.09796,71.010117,586.3139,74.515617Q587.52991,78.018745,587.52991,82.258118Q587.52991,89.689499,583.30005,95.498749Q579.07019,101.308,571.82404,104.614Q564.57794,107.92,555.45795,107.92ZM634.85413,107.92Q621.83203,107.92,612.06604,102.58812Q602.30005,97.253876,596.87317,87.986618Q591.44867,78.719368,591.44867,66.685242Q591.44867,57.379997,594.48865,49.627991Q597.52863,41.875999,602.98401,36.175995Q608.43939,30.475998,615.96338,27.359993Q623.48737,24.243996,632.36279,24.243996Q640.5874,24.243996,647.54138,27.267372Q654.49542,30.290749,659.58264,35.665375Q664.66986,41.039993,667.38928,48.373993Q670.10864,55.707993,669.89728,64.362495L669.7453,70.93412L605.12866,70.93412L601.63263,57.700623L651.96124,57.700623L649.44617,60.462746L649.44617,57.168625Q649.16589,52.981491,646.83838,49.70874Q644.51324,46.435997,640.81537,44.569244Q637.11749,42.702499,632.5979,42.702499Q625.86951,42.702499,621.25012,45.317368Q616.6308,47.929871,614.2439,52.900742Q611.85938,57.869247,611.85938,65.089249Q611.85938,72.325867,614.91125,77.683868Q617.96552,83.04187,623.66791,85.972626Q629.37262,88.903366,637.1413,88.903366Q642.53729,88.903366,646.91913,87.252747Q651.30341,85.602112,656.34552,81.438744L666.672,95.961868Q662.25452,99.906738,656.95111,102.52399Q651.65015,105.14125,646.03326,106.53062Q640.41876,107.92,634.85413,107.92Z" fill="#0064C8" fill-opacity="1"/></g></svg>