<svg xmlns="http://www.w3.org/2000/svg" xmlns:xlink="http://www.w3.org/1999/xlink" fill="none" version="1.1" width="52" height="22" viewBox="0 0 52 22"><defs><linearGradient x1="0.5" y1="0" x2="0.5" y2="1" id="master_svg0_14_0868"><stop offset="0%" stop-color="#FFD386" stop-opacity="1"/><stop offset="100%" stop-color="#FFB12B" stop-opacity="1"/></linearGradient><clipPath id="master_svg1_14_2254"><rect x="0" y="0" width="52" height="22" rx="11"/></clipPath><clipPath id="master_svg2_14_0315"><rect x="8" y="4" width="15" height="14" rx="5"/></clipPath></defs><g clip-path="url(#master_svg1_14_2254)"><rect x="0" y="0" width="52" height="22" rx="11" fill="url(#master_svg0_14_0868)" fill-opacity="1"/><g clip-path="url(#master_svg2_14_0315)"><g><path d="M14.8722773,15.034192L11.750448500000001,16.941015999999998C11.370899,17.172848000000002,10.9002705,16.830917,11.0034645,16.398304L11.8522472,12.8400126C11.895751,12.6576347,11.8335655,12.4662466,11.6911719,12.3442707L8.91297162,9.9644341C8.57520443,9.6750989,8.75496769,9.121846699999999,9.198294,9.0863051L12.8447251,8.7939701C13.031620499999999,8.7789865,13.194426100000001,8.6607013,13.2664294,8.4875832L14.671252299999999,5.1099555C14.8420477,4.6993103000000005,15.4237704,4.69930679,15.5945711,5.1099501L16.999446900000002,8.4875884C17.0714512,8.6607041,17.234254800000002,8.7789869,17.4211483,8.7939701L21.067564,9.0863051C21.51089,9.121846699999999,21.690652999999998,9.6750984,21.352885999999998,9.9644337L18.574691,12.3442707C18.432298,12.4662466,18.370111,12.6576357,18.413615,12.8400126L19.262401,16.398313C19.365595,16.830925,18.894969,17.172854,18.515419,16.941027L15.393533699999999,15.034191C15.2335248,14.936459,15.0322857,14.936459,14.8722773,15.034192" fill="#FFFEFC" fill-opacity="1" style="mix-blend-mode:passthrough"/></g></g><g><path d="M28.8759999,10.251999900000001Q29.7160001,10.251999900000001,30.3580003,10.612Q31,10.972000099999999,31.3540001,11.6380005Q31.7080002,12.3039999,31.7080002,13.18Q31.7080002,14.104,31.3239999,14.794Q30.9400001,15.484,30.25,15.856Q29.5599999,16.228,28.6359999,16.228Q27.5080001,16.228,26.6980001,15.658Q25.88800001,15.088,25.56400001,14.152L26.812,13.72Q27.04,14.308,27.5020001,14.644Q27.964,14.98,28.6359999,14.98Q29.4159999,14.98,29.8780003,14.506001Q30.3400002,14.032,30.3400002,13.228Q30.3400002,12.4239998,29.866000200000002,11.9619999Q29.3920002,11.5,28.6000001,11.5Q28.1200001,11.5,27.724,11.71Q27.3280001,11.9200001,27.04,12.316L25.88800001,12.0279999L26.26,6.7840004L31.2160001,6.7840004L31.2160001,8.032000100000001L27.52,8.032000100000001L27.3039999,10.7199998Q27.6040001,10.48,28.018000100000002,10.3660002Q28.4319999,10.251999900000001,28.8759999,10.251999900000001ZM33.2080002,16.060000000000002L33.2080002,14.5L34.767999599999996,14.5L34.767999599999996,16.060000000000002L33.2080002,16.060000000000002ZM39.460001,16.228Q37.924001000000004,16.228,37.09,14.98Q36.256001,13.732,36.256001,11.4279995Q36.256001,9.112,37.09,7.8640003Q37.924001000000004,6.6160002,39.460001,6.6160002Q40.996,6.6160002,41.83,7.8640003Q42.664001,9.112,42.664001,11.4279995Q42.664001,13.732,41.83,14.98Q40.996,16.228,39.460001,16.228ZM39.460001,14.968Q40.324,14.968,40.798,14.05Q41.272001,13.132,41.272001,11.4279995Q41.272001,9.724,40.798,8.7999997Q40.324,7.8760004,39.460001,7.8760004Q38.596001,7.8760004,38.122001,8.7999997Q37.648001,9.724,37.648001,11.4279995Q37.648001,13.132,38.122001,14.05Q38.596001,14.968,39.460001,14.968Z" fill="#FFFEFC" fill-opacity="1"/></g></g></svg>