<svg xmlns="http://www.w3.org/2000/svg" xmlns:xlink="http://www.w3.org/1999/xlink" fill="none" version="1.1" width="160" height="25.838510513305664" viewBox="0 0 160 25.838510513305664"><defs><clipPath id="master_svg0_14_2816"><rect x="0" y="0" width="160" height="25.838510513305664" rx="0"/></clipPath></defs><g clip-path="url(#master_svg0_14_2816)"><g><g><path d="M0,25.460575L0,0L5.4454861,0L5.4454861,25.460575L0,25.460575ZM2.5191045,15.357049L2.5191045,10.641158L15.652936,10.641158L15.652936,15.357049L2.5191045,15.357049ZM2.5191045,4.9142323L2.5191045,0L17.173698,0L17.173698,4.9142323L2.5191045,4.9142323ZM26.148542,25.838511Q24.044659,25.838511,22.530699,24.90704Q21.017307,23.975569,20.207294,22.245045Q19.39784,20.513952,19.39784,18.092926L19.39784,6.2236342L24.548931,6.2236342L24.548931,17.230221Q24.548931,18.56406,24.976631,19.521105Q25.404327,20.477577,26.212074,20.990772Q27.019827,21.503963,28.167345,21.503963Q29.022171,21.503963,29.731222,21.229467Q30.440271,20.954401,30.95532,20.449167Q31.47094,19.943932,31.763065,19.248312Q32.055763,18.552124,32.055763,17.745684L32.055763,6.2236342L37.206848,6.2236342L37.206848,23.495907L32.295704,25.460575L32.126102,21.488047L33.062042,21.051582Q32.640583,22.411562,31.620127,23.495913Q30.599665,24.579691,29.183842,25.209389Q27.768005,25.838511,26.148542,25.838511ZM40.957996,25.460575L41.000698,8.1996708L45.897503,6.2236342L46.038757,10.151839L45.031898,10.588305Q45.409119,9.2726517,46.454533,8.1996708Q47.500523,7.1266885,48.952656,6.4753976Q50.404781,5.8235397,51.972065,5.8235397Q54.150253,5.8235397,55.630749,6.6998835Q57.111233,7.5756578,57.858284,9.3289156Q58.605347,11.081603,58.605347,13.679947L58.605347,25.460575L53.454254,25.460575L53.454254,14.076062Q53.454254,12.764389,53.088951,11.896569Q52.724216,11.028751,51.972065,10.615585Q51.219902,10.202419,50.130802,10.246746Q49.253292,10.246746,48.522121,10.521811Q47.790951,10.79631,47.253201,11.301542Q46.716026,11.806776,46.412563,12.462613Q46.109089,13.118451,46.109089,13.894202L46.109089,25.460575L43.551983,25.460575Q42.72665,25.460575,42.078285,25.460575Q41.429939,25.460575,40.957996,25.460575ZM70.436226,25.824305Q67.673218,25.824305,65.500687,24.514904Q63.328739,23.205502,62.070038,20.943602Q60.811901,18.681133,60.811901,15.824205Q60.811901,12.96671,62.070038,10.704809Q63.328739,8.4423409,65.500687,7.1329417Q67.673218,5.8235397,70.436226,5.8235397Q73.005821,5.8235397,75.142616,6.7686486Q77.279396,7.7131915,78.481361,9.3959761L75.663895,12.7911Q75.153938,12.109686,74.387039,11.545918Q73.620705,10.98215,72.731285,10.659912Q71.84185,10.337678,70.912148,10.337678Q69.423706,10.337678,68.273926,11.044093Q67.12471,11.750511,66.46727,12.99399Q65.809853,14.237468,65.809853,15.809998Q65.809853,17.367754,66.482018,18.600431Q67.154755,19.833113,68.315323,20.564533Q69.476471,21.295959,70.934265,21.295959Q71.886658,21.295959,72.720505,21.025438Q73.554329,20.754351,74.298553,20.220135Q75.042778,19.685349,75.663895,18.923809L78.467194,22.332567Q77.235153,23.912487,75.053543,24.868395Q72.872528,25.824305,70.436226,25.824305ZM81.028847,25.460575L81.028847,0L92.053108,0Q94.612503,0,96.373764,0.74165261Q98.135605,1.4833052,99.044891,2.8989813Q99.954742,4.3140917,99.954742,6.3026295Q99.954742,8.4605265,98.853729,9.9296265Q97.752724,11.398726,95.733925,11.930099L95.691383,11.216862Q97.383453,11.594793,98.639885,12.508077Q99.896301,13.421365,100.59685,14.761455Q101.29797,16.100973,101.29797,17.826384Q101.29797,19.716038,100.67173,21.144785Q100.04549,22.572966,98.853729,23.53285Q97.661972,24.492735,96.037399,24.976948Q94.412819,25.460575,92.416153,25.460575L81.028847,25.460575ZM86.248566,20.74412L92.198326,20.74412Q93.375908,20.74412,94.191597,20.385513Q95.007858,20.026909,95.450294,19.313669Q95.892754,18.600431,95.892754,17.597921Q95.892754,16.668722,95.420807,16.016865Q94.94886,15.365005,94.085533,15.017764Q93.222763,14.669955,92.016823,14.669955L86.248566,14.669955L86.248566,20.74412ZM86.248566,10.321766L91.397392,10.321766Q92.387794,10.321766,93.113853,9.9699755Q93.83992,9.6181879,94.230743,8.9890614Q94.622139,8.3593683,94.622139,7.5188284Q94.622139,6.1935134,93.737808,5.4552708Q92.853493,4.7164583,91.102989,4.7164583L86.248566,4.7164583L86.248566,10.321766ZM111.19458,25.810101Q108.80708,25.810101,106.88582,24.508078Q104.9646,23.205502,103.83126,20.943602Q102.69791,18.681133,102.69791,15.801474Q102.69791,12.886009,103.83524,10.634908Q104.97311,8.3838053,106.9454,7.1039572Q108.91767,5.8235397,111.4226,5.8235397Q112.8407,5.8235397,114.01829,6.2321577Q115.19643,6.6402102,116.08643,7.3727703Q116.977,8.1047611,117.5828,9.059535Q118.18918,10.014303,118.44727,11.107747L117.35818,10.915656L117.35818,6.2236342L122.47523,6.2236342L122.44415,23.067669L117.28783,25.460575L117.28783,20.82937L118.45522,20.729912Q118.18125,21.740381,117.52381,22.661051Q116.86638,23.581156,115.89528,24.280756Q114.92415,24.979782,113.73523,25.39522Q112.54629,25.810101,111.19458,25.810101ZM112.61268,21.364725Q114.0648,21.364725,115.15276,20.669668Q116.24072,19.974621,116.8437,18.720913Q117.44723,17.466639,117.44723,15.801474Q117.44723,14.159039,116.8437,12.909308Q116.24072,11.659582,115.15276,10.964531Q114.0648,10.268911,112.61268,10.268911Q111.18266,10.268911,110.11285,10.964531Q109.04302,11.659582,108.43951,12.909308Q107.83653,14.159039,107.83653,15.801474Q107.83653,17.466639,108.43951,18.720913Q109.04302,19.974621,110.11285,20.669668Q111.18266,21.364725,112.61268,21.364725ZM132.66399,25.824305Q129.97186,25.824305,127.885,24.938299Q125.79869,24.052294,124.51391,22.48601L128.29565,20.669674Q130.08693,21.392633,130.22372,21.433491Q131.597,21.968845,132.99069,21.968845Q133.5313,21.968845,133.98111,21.847794Q134.43092,21.726173,134.74973,21.476681Q135.0685,21.227192,135.23643,20.893021Q135.40489,20.558283,135.40489,20.140001Q135.40489,19.350042,134.75764,18.895388Q134.4088,18.683405,133.64246,18.409477Q132.87611,18.135548,131.65601,17.822407Q129.81816,17.347296,128.53847,16.713053Q127.25876,16.078812,126.49071,15.262142Q125.81912,14.528442,125.4731,13.632777Q125.12709,12.736542,125.12709,11.641394Q125.12709,10.327447,125.71703,9.2635593Q126.30695,8.1996708,127.33875,7.4261913Q128.37056,6.6521435,129.71434,6.2378411Q131.0587,5.8235397,132.53123,5.8235397Q134.04352,5.8235397,135.45308,6.1804423Q136.86325,6.5367761,138.08052,7.2068214Q139.29784,7.8768668,140.20088,8.7941294L137.43785,11.865314Q136.77646,11.245281,135.95961,10.738908Q135.14281,10.232539,134.28629,9.934742Q133.43031,9.6363735,132.71275,9.6363735Q132.09163,9.6363735,131.60834,9.7466288Q131.12508,9.8568821,130.79947,10.084208Q130.47388,10.311535,130.30542,10.642294Q130.13695,10.97249,130.13695,11.39077Q130.15904,11.792569,130.35135,12.147198Q130.5442,12.501826,130.92143,12.750749Q131.29297,12.984895,132.08424,13.28383Q132.87611,13.582767,134.22331,13.930574Q135.96756,14.403414,137.17577,14.988778Q138.38402,15.573578,139.10213,16.343077Q139.7431,16.992094,140.03351,17.830933Q140.32394,18.669197,140.32394,19.683643Q140.32394,21.461908,139.31372,22.852011Q138.30347,24.242113,136.57281,25.033205Q134.84218,25.824305,132.66399,25.824305ZM151.62674,25.824305Q148.51659,25.824305,146.1841,24.548435Q143.85161,23.271996,142.55547,21.054422Q141.25989,18.836849,141.25989,15.957191Q141.25989,13.730529,141.98596,11.875543Q142.71202,10.020555,144.01497,8.6565962Q145.31789,7.2926373,147.11491,6.5470057Q148.91196,5.8013744,151.03174,5.8013744Q152.99605,5.8013744,154.65694,6.5248423Q156.31779,7.2483091,157.53282,8.5344095Q158.74782,9.8205099,159.39735,11.57547Q160.04683,13.330432,159.99634,15.401378L159.96007,16.973911L144.52719,16.973911L143.69223,13.807251L155.71255,13.807251L155.11188,14.468202L155.11188,13.679947Q155.04492,12.678004,154.48901,11.894862Q153.93372,11.111725,153.05049,10.665028Q152.16733,10.218331,151.08789,10.218331Q149.48087,10.218331,148.37761,10.844049Q147.27434,11.469195,146.70424,12.658679Q146.13472,13.847602,146.13472,15.575285Q146.13472,17.306944,146.86363,18.589066Q147.59309,19.871183,148.95505,20.572493Q150.31754,21.27379,152.17299,21.27379Q153.46175,21.27379,154.50832,20.878817Q155.55547,20.483833,156.75967,19.487572L159.22601,22.96283Q158.17097,23.906801,156.90433,24.533085Q155.63826,25.159374,154.29671,25.491838Q152.95578,25.824305,151.62674,25.824305Z" fill="#C1C1C1" fill-opacity="1" style="mix-blend-mode:passthrough"/></g></g></g></svg>