<svg xmlns="http://www.w3.org/2000/svg" xmlns:xlink="http://www.w3.org/1999/xlink" fill="none" version="1.1" width="42" height="42" viewBox="0 0 42 42"><defs><clipPath id="master_svg0_14_0303"><rect x="0" y="0" width="42" height="42" rx="0"/></clipPath></defs><g clip-path="url(#master_svg0_14_0303)"><g><path d="M34.849318984375,25.425749C34.533795984375004,24.421247,34.103469984374996,23.249798,33.667369984375,22.125248L32.075395984375,18.194574C32.076619984375,18.149248999999998,32.096393984375,17.375014999999998,32.096393984375,16.975926C32.096393984375,10.2548246,28.889344984375,3.5006475448,21.001571984374998,3.5C13.114548684375,3.5006475448,9.906974284375,10.2548246,9.906974284375,16.975926C9.906974284375,17.375014999999998,9.926644284375,18.149248999999998,9.927956784375,18.194574L8.336629584375,22.125248C7.900424884375,23.249798,7.4694693843749995,24.421247,7.153961684375,25.425749C5.649871914375,30.214972,6.137247025375,32.196848,6.508509664375,32.241648C7.304829584375,32.336323,9.607864384375,28.636124,9.607864384375,28.636124C9.607864384375,30.778826,10.722964284375,33.575148,13.136196584375,35.59465C12.233616784375,35.869923,11.127686484375001,36.292896,10.416644584375,36.812122C9.777754084375001,37.279373,9.857781684375,37.755024,9.972564184374999,37.94717C10.478296284375,38.790672,18.644844984375,38.485649,21.002971984375,38.222973C23.360393984375,38.485649,31.527646984375,38.790672,32.032693984375,37.94717C32.148192984375,37.755024,32.227471984375,37.279373,31.588717984375,36.812122C30.877521984375,36.292896,29.770993984375,35.869923,28.867818984375,35.594124C31.280370984375,33.575148,32.395469984375,30.778826,32.395469984375,28.636124C32.395469984375,28.636124,34.699168984375,32.336323,35.495419984375005,32.241648C35.866069984375,32.196848,36.353440984375,30.214972,34.849318984375,25.425749Z" fill="#A6A6A6" fill-opacity="1" style="mix-blend-mode:passthrough"/></g></g></svg>