<svg xmlns="http://www.w3.org/2000/svg" xmlns:xlink="http://www.w3.org/1999/xlink" fill="none" version="1.1" width="51.27000045776367" height="22" viewBox="0 0 51.27000045776367 22"><defs><linearGradient x1="0.5" y1="0" x2="0.5" y2="1" id="master_svg0_14_2614"><stop offset="0%" stop-color="#8FB6F7" stop-opacity="1"/><stop offset="100%" stop-color="#2B79FF" stop-opacity="1"/></linearGradient><clipPath id="master_svg1_14_2467"><rect x="0" y="0" width="51.27000045776367" height="22" rx="11"/></clipPath><clipPath id="master_svg2_14_0319"><rect x="7.135000228881836" y="3" width="12" height="16" rx="0"/></clipPath></defs><g clip-path="url(#master_svg1_14_2467)"><rect x="0" y="0" width="51.27000045776367" height="22" rx="11" fill="url(#master_svg0_14_2614)" fill-opacity="1"/><g clip-path="url(#master_svg2_14_0319)"><g><path d="M12.183290028881835,12.6016212L17.665285228881835,7.4420943C17.929185228881835,7.19371833,18.340834228881835,7.19371931,18.604732228881836,7.44209659C18.892249228881838,7.71270275,18.892248228881837,8.16965,18.604730228881834,8.4402547L12.183290028881835,14.4839625C11.875250328881837,14.7738819,11.394748228881836,14.7738824,11.086708028881835,14.483964L7.665281238881836,11.2638187C7.377758948881836,10.9932108,7.377759548881836,10.536256999999999,7.665282428881836,10.2656505C7.9291814588818355,10.017277700000001,8.340827928881836,10.0172787,8.604726228881836,10.2656522L11.086708028881835,12.601623100000001C11.394748228881836,12.891542000000001,11.875250828881835,12.8915405,12.183290028881835,12.6016212" fill="#FFFEFC" fill-opacity="1" style="mix-blend-mode:passthrough"/></g></g><g><path d="M27.545000028881837,15.05L26.215000128881837,15.05L24.465000128881837,11.96L24.345000228881837,11.96L23.015000228881835,11.96L23.015000228881835,15.05L21.885000228881836,15.05L21.885000228881836,7.3200002L24.245000128881834,7.3200002Q25.655000228881836,7.3200002,26.425000228881835,7.9349999Q27.195000128881837,8.5500002,27.195000128881837,9.6600003Q27.195000128881837,10.46,26.785000328881836,11.0100002Q26.375000028881836,11.5600004,25.605000028881836,11.79L27.545000028881837,15.05ZM23.015000228881835,10.9100003L24.125000228881838,10.9100003Q25.035000128881837,10.9100003,25.530000228881836,10.585Q26.025000128881835,10.2600002,26.025000128881835,9.6600003Q26.025000128881835,9.04,25.535000328881836,8.7049999Q25.045000028881837,8.3700004,24.125000228881838,8.3700004L23.015000228881835,8.3700004L23.015000228881835,10.9100003ZM29.774999628881837,15.05L27.704999928881836,7.3200002L28.895000028881835,7.3200002L30.414999928881834,13.1700001L30.475000428881835,13.1700001L32.075000228881834,7.3200002L33.27499922888184,7.3200002L34.91500022888184,13.1700001L34.965000228881834,13.1700001L36.48499922888183,7.3200002L37.67500122888184,7.3200002L35.58500022888184,15.05L34.41500022888184,15.05L32.705000228881836,9.1600003L32.645000228881834,9.1600003L30.944999728881836,15.05L29.774999628881837,15.05ZM41.02499922888184,10.21Q41.72500022888184,10.21,42.260000228881836,10.5100002Q42.79500022888183,10.809999900000001,43.090000228881834,11.3649998Q43.385000228881836,11.9200001,43.385000228881836,12.6500001Q43.385000228881836,13.4200001,43.065000228881836,13.9949999Q42.74500122888183,14.5699997,42.17000022888183,14.8800001Q41.59499922888183,15.19,40.82500122888183,15.19Q39.885000228881836,15.19,39.210001228881836,14.7150002Q38.535000228881835,14.2399998,38.264999228881834,13.46L39.30500022888184,13.1000004Q39.49500122888183,13.5900002,39.879999228881836,13.8699999Q40.264999228881834,14.1499996,40.82500122888183,14.1499996Q41.47500022888184,14.1499996,41.86000022888184,13.7550001Q42.24500122888183,13.3599997,42.24500122888183,12.690000099999999Q42.24500122888183,12.02,41.85000022888184,11.6350002Q41.455000228881836,11.25,40.79500022888183,11.25Q40.39500022888184,11.25,40.065000228881836,11.4250002Q39.73500022888184,11.600000399999999,39.49500122888183,11.9300003L38.535000228881835,11.690000099999999L38.84499922888183,7.3200002L42.97500022888184,7.3200002L42.97500022888184,8.3600001L39.89500022888184,8.3600001L39.715000228881834,10.5999999Q39.965000228881834,10.4000001,40.309999228881836,10.3050003Q40.65500022888183,10.21,41.02499922888184,10.21Z" fill="#FFFEFC" fill-opacity="1"/></g></g></svg>