<svg xmlns="http://www.w3.org/2000/svg" xmlns:xlink="http://www.w3.org/1999/xlink" fill="none" version="1.1" width="42" height="42" viewBox="0 0 42 42"><defs><clipPath id="master_svg0_14_0758"><rect x="0" y="0" width="42" height="42" rx="0"/></clipPath></defs><g clip-path="url(#master_svg0_14_0758)"><g><path d="M8.743596,19.331805C16.5282269,15.9449005,21.719247,13.7120104,24.316463,12.6331813C31.732334,9.55292845,33.273277,9.01786197,34.277626,9.00018790922C34.498526,8.9963061009,34.992540000000005,9.050972845,35.312387,9.31023243C35.582539,9.52913606,35.656864,9.82485497,35.692469,10.0323957C35.728075000000004,10.2399514,35.772282000000004,10.7127514,35.737123,11.0821731C35.335234,15.2988114,33.59639,25.531511,32.71176,30.254179C32.337465,32.25255,31.600449,32.922474,30.886869,32.988106C29.336134,33.130621000000005,28.15851,31.964695,26.656584,30.981585C24.306376,29.443068,22.978617,28.485287,20.697243999999998,26.983953C18.060788000000002,25.248993,19.769905,24.295363000000002,21.272408,22.736991C21.665691000000002,22.329140000000002,28.498238,16.1230183,28.630421,15.5600266C28.646889,15.4896116,28.662317,15.227151899999999,28.5061,15.0885596C28.350033,14.9499679,28.119642,14.9973588,27.953337,15.0350637C27.717604,15.0884848,23.962936,17.5666189,16.6895618,22.469732999999998C15.6238375,23.200397000000002,14.6585493,23.556546,13.7936807,23.53788C12.8402162,23.517288,11.0061574,22.99951,9.6427188,22.556991C7.9704098000000005,22.014029999999998,6.64128828,21.727065,6.7570259189,20.80514C6.8173076439999996,20.32499,7.47949463,19.833879,8.743596,19.331805Z" fill="#A6A6A6" fill-opacity="1" style="mix-blend-mode:passthrough"/></g></g></svg>